<svg width="22" height="30" viewBox="0 0 22 30" fill="none" xmlns="http://www.w3.org/2000/svg">
<path d="M21.3596 11.572L11.5929 29.152C11.4171 29.4645 11.0948 29.6501 10.7432 29.6501C10.6651 29.6501 10.5772 29.6403 10.4991 29.6208C10.0693 29.5036 9.76657 29.1227 9.76657 28.6734V17.9301H0.976571C0.644505 17.9301 0.341738 17.7641 0.156171 17.4906C-0.0196288 17.2171 -0.0489287 16.8655 0.078038 16.5628L6.9147 0.936098C7.07097 0.584498 7.42257 0.350098 7.81324 0.350098H13.6732C13.9955 0.350098 14.2983 0.506364 14.4839 0.779831C14.6597 1.04353 14.6987 1.38536 14.5815 1.68813L11.212 10.1168H20.5099C20.8517 10.1168 21.174 10.3023 21.3498 10.5953C21.5256 10.8981 21.5354 11.2692 21.3596 11.572Z" fill="white"/>
</svg>
