<svg width="27" height="30" viewBox="0 0 27 30" fill="none" xmlns="http://www.w3.org/2000/svg">
<path d="M0 6.42542C0 5.7157 0.505979 5.14035 1.13014 5.14035L5.03323 5.13967C5.80872 5.11731 6.49288 4.55661 6.75675 3.72712C6.7637 3.70531 6.77166 3.67841 6.80028 3.5808L6.96846 3.00699C7.07137 2.65517 7.16103 2.34865 7.28651 2.07468C7.78217 0.99233 8.69924 0.24073 9.75901 0.0483034C10.0272 -0.000407562 10.3114 -0.000202354 10.6375 3.20451e-05H15.7327C16.0588 -0.000202354 16.3429 -0.000407562 16.6111 0.0483034C17.6709 0.24073 18.588 0.99233 19.0836 2.07468C19.2091 2.34865 19.2988 2.65517 19.4016 3.00699L19.5698 3.5808C19.5984 3.67841 19.6064 3.70531 19.6133 3.72712C19.8773 4.55661 20.6971 5.118 21.4725 5.14035H25.2398C25.8639 5.14035 26.3699 5.7157 26.3699 6.42542C26.3699 7.13515 25.8639 7.71049 25.2398 7.71049H1.13014C0.505979 7.71049 0 7.13515 0 6.42542Z" fill="white"/>
<path d="M12.5927 29.3001H13.7776C17.8542 29.3001 19.8926 29.3002 21.2178 28.0023C22.5432 26.7045 22.6787 24.5756 22.9499 20.3175L23.3406 14.1823C23.4878 11.872 23.5614 10.7169 22.8964 9.98493C22.2316 9.25293 21.1088 9.25293 18.8634 9.25293H7.50689C5.26137 9.25293 4.13862 9.25293 3.47376 9.98493C2.8089 10.7169 2.88248 11.872 3.02962 14.1823L3.42035 20.3175C3.69153 24.5756 3.82712 26.7045 5.15241 28.0023C6.4777 29.3002 8.51603 29.3001 12.5927 29.3001Z" fill="white"/>
</svg>
