<svg width="393" height="413" viewBox="0 0 393 413" fill="none" xmlns="http://www.w3.org/2000/svg">
<path d="M392.824 0H0.0930786V390.838C0.0930786 390.838 -5.02298 385.454 64.6396 390.838C118.5 395 266.856 422.167 326.597 408.603C399.751 391.993 392.824 390.838 392.824 390.838V0Z" fill="#9BB03F"/>
<g clip-path="url(#clip0_1199_1134)">
<path d="M278.551 248.183L275.815 315.316L275.452 319.335L198.829 314.045C194.032 313.54 189.806 311.439 186.603 308.302C183.012 305.022 180.108 301.041 178.124 296.569L178.034 296.348C176.802 293.431 175.868 290.047 175.415 286.508L175.389 286.313C175.272 285.211 175.207 283.928 175.207 282.631C175.207 279.74 175.544 276.914 176.167 274.204L176.115 274.45C177.031 269.947 177.744 266.602 178.254 264.415C179.576 259.644 180.912 255.768 182.455 251.982L182.182 252.747C184.248 247.155 185.402 243.944 185.644 243.114C195.143 244.557 226.103 246.251 278.525 248.196L278.551 248.183ZM207.931 141.287L240.771 210.429L213.96 193.652C207.01 201.509 200.333 210.105 194.201 219.116L193.63 220.01C189.067 226.532 184.659 234.012 180.847 241.817L180.406 242.816C177.485 249.238 175.086 254.986 173.211 260.059C171.862 263.313 170.695 267.164 169.905 271.157L169.84 271.559L169.114 275.384L134.458 210.261C132.514 207.382 131.308 203.869 131.178 200.07V200.031C131.139 199.526 131.113 198.929 131.113 198.333C131.113 195.87 131.528 193.51 132.293 191.319L132.254 191.474L133.706 188.194C137.985 180.536 144.917 169.123 154.502 153.954L129 138.201L207.931 141.287ZM432.484 235.607L398.244 301.093C396.831 304.568 394.536 307.446 391.645 309.546L391.593 309.585C389.363 311.349 386.692 312.645 383.788 313.293L383.658 313.319L380.378 314.045C371.743 314.892 358.428 315.605 340.433 316.185L341.885 346.147L299.93 279.195L338.449 213.152L339.72 244.709C348.938 245.785 359.608 246.407 370.421 246.407C377.785 246.407 385.084 246.122 392.293 245.564L391.333 245.629C402.678 244.877 413.244 242.725 423.253 239.341L422.372 239.6L432.484 235.607ZM289.325 67.0365C283.62 74.6945 267.505 101.147 240.979 146.395L183.194 112.284L179.732 110.145L220.779 45.2034C223.372 41.3399 227.132 38.4487 231.553 37.0096L231.696 36.9707C235.079 35.7131 238.982 35 243.053 35C244.194 35 245.322 35.0519 246.437 35.1685L246.294 35.1556C249.548 35.4408 252.556 36.2057 255.344 37.3726L255.149 37.2948C258.092 38.4876 260.582 39.7841 262.941 41.2621L262.734 41.1454C265.56 43.0383 268.036 45.0219 270.318 47.1871L270.292 47.1612C273.214 49.8406 275.405 51.9366 276.866 53.4492C278.326 54.9618 280.517 57.3603 283.439 60.6447C286.386 63.9292 288.348 66.0598 289.325 67.0365ZM408.81 123.032L447.485 189.257C449.067 192.343 450 195.986 450 199.85C450 201.017 449.909 202.17 449.754 203.298L449.767 203.169C449.015 208.251 447.251 212.815 444.671 216.808L444.749 216.678C443.025 219.258 441.041 221.488 438.772 223.394L438.72 223.433C436.672 225.209 434.403 226.895 432.018 228.399L431.784 228.528C429.269 230.019 426.339 231.368 423.279 232.431L422.929 232.534C419.221 233.874 416.369 234.847 414.372 235.452C412.376 236.057 409.242 236.908 404.973 238.006L396.584 240.145C392.444 231.389 376.329 204.876 348.238 160.605L405.336 125.029L408.81 123.032ZM382.725 81.8036L408.629 66.6605L368.502 134.714L292.048 131.071L319.598 115.383C314.996 103.287 310.393 93.3165 305.22 83.7094L305.92 85.1356C301.408 76.4361 296.832 69.072 291.775 62.0709L292.138 62.6025C287.946 56.9411 284.022 52.0749 280.366 48.0039C277.721 44.9182 274.921 42.1437 271.913 39.6026L271.809 39.5118L268.711 37.1392L342.546 37.3207C343.156 37.2559 343.856 37.217 344.582 37.217C347.693 37.217 350.649 37.969 353.242 39.2914L353.139 39.2395C355.952 40.5101 358.325 42.2734 360.269 44.4385L360.282 44.4644L362.292 47.2C367.037 54.5814 373.848 66.116 382.725 81.8036Z" fill="white"/>
</g>
<defs>
<clipPath id="clip0_1199_1134">
<rect width="321" height="311.147" fill="white" transform="translate(129 35)"/>
</clipPath>
</defs>
</svg>
