<svg width="393" height="412" viewBox="0 0 393 412" fill="none" xmlns="http://www.w3.org/2000/svg">
<path d="M397.806 -28H-0.700317V389.399C-0.700317 389.399 -42.5268 389.665 34.764 389.399C70.1627 389.278 258.458 422.858 324.544 408.372C405.468 390.633 397.806 389.399 397.806 389.399V-28Z" fill="#9BB03F"/>
<path d="M325.738 83.2596C331.955 77.0421 335.064 73.9333 338.648 72.7685C341.802 71.7438 345.198 71.7438 348.352 72.7685C351.937 73.9333 355.046 77.0419 361.263 83.2596L383.243 105.24C385.96 107.955 387.316 109.313 388.902 110.284C390.305 111.145 391.838 111.779 393.439 112.164C395.246 112.598 397.166 112.598 401.007 112.598H428.281C437.075 112.598 441.471 112.598 444.83 114.309C447.784 115.814 450.187 118.216 451.692 121.17C453.402 124.529 453.402 128.925 453.402 137.718V164.994C453.402 168.834 453.402 170.754 453.837 172.561C454.222 174.163 454.856 175.695 455.716 177.099C456.688 178.684 458.045 180.041 460.761 182.757L482.741 204.737C488.959 210.955 492.067 214.063 493.232 217.649C494.256 220.802 494.256 224.198 493.232 227.352C492.067 230.937 488.959 234.045 482.741 240.263L460.761 262.243C458.045 264.959 456.688 266.317 455.716 267.902C454.856 269.307 454.222 270.837 453.837 272.439C453.402 274.246 453.402 276.166 453.402 280.006V307.283C453.402 316.075 453.402 320.473 451.692 323.831C450.187 326.784 447.784 329.186 444.83 330.692C441.471 332.403 437.075 332.403 428.281 332.403H401.007C397.166 332.403 395.246 332.403 393.439 332.837C391.838 333.221 390.305 333.856 388.902 334.716C387.316 335.688 385.96 337.044 383.243 339.76L361.263 361.741C355.046 367.958 351.937 371.067 348.352 372.232C345.198 373.257 341.802 373.257 338.648 372.232C335.064 371.067 331.955 367.958 325.738 361.741L303.757 339.76C301.041 337.044 299.684 335.688 298.099 334.716C296.695 333.856 295.163 333.221 293.561 332.837C291.754 332.403 289.834 332.403 285.994 332.403H258.718C249.925 332.403 245.529 332.403 242.17 330.692C239.216 329.186 236.814 326.784 235.309 323.831C233.598 320.473 233.598 316.075 233.598 307.283V280.006C233.598 276.166 233.598 274.246 233.164 272.439C232.779 270.837 232.145 269.307 231.284 267.902C230.313 266.317 228.955 264.959 226.24 262.243L204.26 240.263C198.042 234.045 194.933 230.937 193.768 227.352C192.744 224.198 192.744 220.802 193.768 217.649C194.933 214.063 198.042 210.955 204.26 204.737L226.24 182.757C228.955 180.041 230.313 178.684 231.284 177.099C232.145 175.695 232.779 174.163 233.164 172.561C233.598 170.754 233.598 168.834 233.598 164.994V137.718C233.598 128.925 233.598 124.529 235.309 121.17C236.814 118.216 239.216 115.814 242.17 114.309C245.529 112.598 249.925 112.598 258.718 112.598H285.994C289.834 112.598 291.754 112.598 293.561 112.164C295.163 111.779 296.695 111.145 298.099 110.284C299.684 109.313 301.041 107.955 303.757 105.24L325.738 83.2596Z" fill="#09284A" stroke="#09284A" stroke-width="15.2076" stroke-linecap="round" stroke-linejoin="round"/>
<path d="M386.604 189.363C388.018 184.964 388.797 180.279 388.797 175.411C388.797 150.216 368.372 129.789 343.174 129.789C317.976 129.789 297.551 150.216 297.551 175.411C297.551 180.279 298.33 184.964 299.744 189.363C281.883 195.548 269.037 212.474 269.037 232.44C269.037 257.635 289.462 278.062 314.66 278.062C324.54 278.062 333.653 274.877 341.121 269.537L318.281 246.697H306.106C304.529 246.697 303.254 245.422 303.254 243.845C303.254 242.269 304.529 240.994 306.106 240.994H317.511V229.588C317.511 228.012 318.786 226.737 320.363 226.737C321.94 226.737 323.214 228.012 323.214 229.588V243.563L340.323 260.663V225.072L329.772 214.521C328.657 213.407 328.78 211.727 329.898 210.609C331.013 209.494 332.561 209.241 333.673 210.353L343.174 219.854L352.555 210.472C353.67 209.358 355.515 209.318 356.63 210.43C357.745 211.542 357.742 213.35 356.627 214.464L346.025 225.066V260.666L363.134 243.555V229.588C363.134 228.012 364.409 226.737 365.985 226.737C367.562 226.737 368.837 228.012 368.837 229.588V240.994H380.242C381.819 240.994 383.094 242.269 383.094 243.845C383.094 245.422 381.819 246.697 380.242 246.697H368.067L345.227 269.537C352.698 274.877 361.808 278.062 371.688 278.062C396.886 278.062 417.311 257.635 417.311 232.44C417.311 212.474 404.465 195.548 386.604 189.363Z" fill="#9BB03F"/>
<path d="M331.768 280.802V309.428C331.768 311.004 333.043 312.279 334.62 312.279H351.728C353.305 312.279 354.58 311.004 354.58 309.428V280.802C350.525 279.365 346.687 277.466 343.174 275.111C339.661 277.466 335.823 279.365 331.768 280.802Z" fill="#9BB03F"/>
</svg>
