<svg width="27" height="27" viewBox="0 0 27 27" fill="none" xmlns="http://www.w3.org/2000/svg">
<rect width="27" height="27" rx="4.37838" fill="white"/>
<path d="M19.6785 11.1357L14.3385 20.7477C14.2424 20.9185 14.0662 21.02 13.8739 21.02C13.8312 21.02 13.7832 21.0147 13.7404 21.004C13.5055 20.9399 13.3399 20.7316 13.3399 20.486V14.612H8.53395C8.35239 14.612 8.18685 14.5212 8.08539 14.3717C7.98927 14.2222 7.97325 14.0299 8.04267 13.8644L11.7807 5.3204C11.8661 5.12816 12.0583 5 12.2719 5H15.4759C15.6522 5 15.8177 5.08544 15.9192 5.23496C16.0153 5.37914 16.0366 5.56604 15.9726 5.73158L14.1303 10.34H19.2139C19.4008 10.34 19.5771 10.4415 19.6732 10.6017C19.7693 10.7672 19.7746 10.9701 19.6785 11.1357Z" fill="#FDC11A"/>
</svg>
