<svg width="86" height="118" viewBox="0 0 86 118" fill="none" xmlns="http://www.w3.org/2000/svg">
<path d="M85.4914 44.9154L46.4005 115.279C45.6969 116.53 44.4069 117.273 42.9996 117.273C42.6869 117.273 42.3351 117.234 42.0223 117.155C40.3023 116.686 39.0905 115.162 39.0905 113.364V70.3636H3.90871C2.57962 70.3636 1.3678 69.6991 0.625072 68.6045C-0.0785638 67.51 -0.195836 66.1027 0.312345 64.8909L27.676 2.34545C28.3014 0.938181 29.7087 0 31.2723 0H54.7269C56.0169 0 57.2287 0.625454 57.9714 1.72C58.6751 2.77545 58.8314 4.14363 58.3623 5.35545L44.876 39.0909H82.0905C83.4587 39.0909 84.7487 39.8336 85.4523 41.0063C86.156 42.2182 86.195 43.7036 85.4914 44.9154Z" fill="#FDC11A"/>
</svg>
