<svg width="264" height="312" viewBox="0 0 264 312" fill="none" xmlns="http://www.w3.org/2000/svg">
<g clip-path="url(#clip0_1078_845)">
<path d="M149.551 213.183L146.815 280.316L146.452 284.335L69.8294 279.045C65.0324 278.54 60.8058 276.439 57.6034 273.302C54.0121 270.022 51.108 266.041 49.1243 261.569L49.0336 261.348C47.8019 258.431 46.8684 255.047 46.4146 251.508L46.3887 251.313C46.272 250.211 46.2072 248.928 46.2072 247.631C46.2072 244.74 46.5443 241.914 47.1666 239.204L47.1147 239.45C48.0309 234.947 48.744 231.602 49.254 229.415C50.5764 224.644 51.9118 220.768 53.4546 216.982L53.1824 217.747C55.2481 212.155 56.402 208.944 56.644 208.114C66.143 209.557 97.1034 211.251 149.525 213.196L149.551 213.183ZM78.9308 106.287L111.771 175.429L84.9595 158.652C78.0103 166.509 71.3333 175.105 65.2009 184.116L64.6304 185.01C60.0668 191.532 55.6587 199.012 51.847 206.817L51.4062 207.816C48.4847 214.238 46.0862 219.986 44.2106 225.059C42.8622 228.313 41.6954 232.164 40.9045 236.157L40.8397 236.559L40.1137 240.384L5.45826 175.261C3.51351 172.382 2.30777 168.869 2.17812 165.07V165.031C2.13922 164.526 2.11329 163.929 2.11329 163.333C2.11329 160.87 2.52817 158.51 3.29311 156.319L3.25421 156.474L4.70629 153.194C8.98473 145.536 15.9167 134.123 25.5021 118.954L0 103.201L78.9308 106.287ZM303.484 200.607L269.244 266.093C267.831 269.568 265.536 272.446 262.645 274.546L262.593 274.585C260.363 276.349 257.692 277.645 254.788 278.293L254.658 278.319L251.378 279.045C242.743 279.892 229.428 280.605 211.433 281.185L212.885 311.147L170.93 244.195L209.449 178.152L210.72 209.709C219.938 210.785 230.608 211.407 241.421 211.407C248.785 211.407 256.084 211.122 263.293 210.564L262.333 210.629C273.678 209.877 284.244 207.725 294.253 204.341L293.372 204.6L303.484 200.607ZM160.325 32.0365C154.62 39.6945 138.505 66.1473 111.979 111.395L54.1936 77.2843L50.732 75.145L91.7791 10.2034C94.3721 6.33988 98.132 3.44869 102.553 2.00957L102.696 1.97068C106.079 0.713074 109.982 0 114.053 0C115.194 0 116.322 0.0518599 117.437 0.168545L117.294 0.15558C120.548 0.440809 123.556 1.20574 126.344 2.37259L126.149 2.2948C129.092 3.48758 131.582 4.78408 133.941 6.26209L133.734 6.1454C136.56 8.03829 139.036 10.0219 141.318 12.1871L141.292 12.1612C144.214 14.8406 146.405 16.9366 147.866 18.4492C149.326 19.9618 151.517 22.3603 154.439 25.6447C157.386 28.9292 159.348 31.0598 160.325 32.0365ZM279.81 88.0322L318.485 154.257C320.067 157.343 321 160.986 321 164.85C321 166.017 320.909 167.17 320.754 168.298L320.767 168.169C320.015 173.251 318.251 177.815 315.671 181.808L315.749 181.678C314.025 184.258 312.041 186.488 309.772 188.394L309.72 188.433C307.672 190.209 305.403 191.895 303.018 193.399L302.784 193.528C300.269 195.019 297.339 196.368 294.279 197.431L293.929 197.534C290.221 198.874 287.369 199.847 285.372 200.452C283.376 201.057 280.242 201.908 275.973 203.006L267.584 205.145C263.444 196.389 247.329 169.876 219.238 125.605L276.336 90.0288L279.81 88.0322ZM253.725 46.8036L279.629 31.6605L239.502 99.7137L163.048 96.0705L190.598 80.3829C185.996 68.2866 181.393 58.3165 176.22 48.7094L176.92 50.1356C172.408 41.4361 167.832 34.072 162.775 27.0709L163.138 27.6025C158.946 21.9411 155.022 17.0749 151.366 13.0039C148.721 9.91821 145.921 7.14371 142.913 4.60257L142.809 4.51181L139.711 2.13922L213.546 2.32073C214.156 2.25591 214.856 2.21701 215.582 2.21701C218.693 2.21701 221.649 2.96898 224.242 4.29141L224.139 4.23955C226.952 5.51012 229.325 7.27336 231.269 9.43851L231.282 9.46444L233.292 12.2C238.037 19.5814 244.848 31.116 253.725 46.8036Z" fill="white"/>
</g>
<defs>
<clipPath id="clip0_1078_845">
<rect width="321" height="311.147" fill="white"/>
</clipPath>
</defs>
</svg>
