<svg width="27" height="27" viewBox="0 0 27 27" fill="none" xmlns="http://www.w3.org/2000/svg">
<rect width="27" height="27" rx="4.37838" fill="white"/>
<path d="M6 8.51315C6 8.1251 6.27665 7.81053 6.61791 7.81053L8.75196 7.81015C9.17596 7.79793 9.55003 7.49136 9.69431 7.03783C9.6981 7.0259 9.70246 7.0112 9.7181 6.95783L9.81006 6.64409C9.86633 6.45173 9.91535 6.28414 9.98395 6.13435C10.255 5.54256 10.7564 5.13162 11.3358 5.02641C11.4825 4.99978 11.6378 4.99989 11.8161 5.00002H14.602C14.7803 4.99989 14.9356 4.99978 15.0823 5.02641C15.6617 5.13162 16.1631 5.54256 16.4341 6.13435C16.5027 6.28414 16.5518 6.45173 16.608 6.64409L16.6999 6.95783C16.7156 7.0112 16.72 7.0259 16.7237 7.03783C16.8681 7.49136 17.3163 7.79831 17.7403 7.81053H19.8C20.1413 7.81053 20.4179 8.1251 20.4179 8.51315C20.4179 8.9012 20.1413 9.21577 19.8 9.21577H6.61791C6.27665 9.21577 6 8.9012 6 8.51315Z" fill="#FB7B4A"/>
<path d="M12.8851 21.0199H13.5329C15.7619 21.0199 16.8764 21.0199 17.601 20.3103C18.3256 19.6007 18.3997 18.4367 18.548 16.1086L18.7616 12.7541C18.8421 11.491 18.8823 10.8594 18.5187 10.4592C18.1553 10.059 17.5414 10.059 16.3137 10.059H10.1044C8.87665 10.059 8.26278 10.059 7.89926 10.4592C7.53574 10.8594 7.57597 11.491 7.65642 12.7541L7.87006 16.1086C8.01833 18.4367 8.09246 19.6007 8.81707 20.3103C9.54169 21.0199 10.6562 21.0199 12.8851 21.0199Z" fill="#FB7B4A"/>
</svg>
