<svg width="207" height="126" viewBox="0 0 207 126" fill="none" xmlns="http://www.w3.org/2000/svg">
<path d="M111 31.3101C111 28.7263 112.842 26.6318 115.114 26.6318L129.324 26.6293C132.147 26.5479 134.637 24.5067 135.598 21.4869C135.623 21.4075 135.652 21.3095 135.757 20.9542L136.369 18.8652C136.743 17.5844 137.07 16.4685 137.527 15.4711C139.331 11.5308 142.67 8.7946 146.528 8.09406C147.504 7.91673 148.539 7.91748 149.726 7.91833H168.275C169.462 7.91748 170.497 7.91673 171.473 8.09406C175.331 8.7946 178.67 11.5308 180.474 15.4711C180.931 16.4685 181.258 17.5844 181.632 18.8652L182.244 20.9542C182.348 21.3095 182.378 21.4075 182.403 21.4869C183.364 24.5067 186.348 26.5504 189.171 26.6318H202.886C205.158 26.6318 207 28.7263 207 31.3101C207 33.8939 205.158 35.9884 202.886 35.9884H115.114C112.842 35.9884 111 33.8939 111 31.3101Z" fill="#FB7B4A"/>
<path d="M156.84 114.304H161.154C175.995 114.304 183.416 114.304 188.24 109.579C193.065 104.854 193.559 97.1041 194.546 81.6027L195.968 59.2673C196.504 50.8566 196.772 46.6515 194.351 43.9866C191.931 41.3218 187.843 41.3218 179.669 41.3218H138.325C130.15 41.3218 126.063 41.3218 123.643 43.9866C121.222 46.6515 121.49 50.8566 122.026 59.2673L123.448 81.6027C124.435 97.1041 124.929 104.854 129.754 109.579C134.578 114.304 141.999 114.304 156.84 114.304Z" fill="#FB7B4A"/>
<path d="M102.5 119C91.2283 119 80.4183 114.522 72.448 106.552C64.4777 98.5818 60 87.7717 60 76.5C60 48.1667 102.5 0 102.5 0C102.5 0 145 48.1667 145 76.5C145 87.7717 140.522 98.5818 132.552 106.552C124.582 114.522 113.772 119 102.5 119Z" fill="#0483E3"/>
<path d="M85.4914 52.9154L46.4005 123.279C45.6969 124.53 44.4069 125.273 42.9996 125.273C42.6869 125.273 42.3351 125.234 42.0223 125.155C40.3023 124.686 39.0905 123.162 39.0905 121.364V78.3636H3.90871C2.57962 78.3636 1.3678 77.6991 0.625072 76.6045C-0.0785639 75.51 -0.195836 74.1027 0.312345 72.8909L27.676 10.3455C28.3014 8.93818 29.7087 8 31.2723 8H54.7269C56.0169 8 57.2287 8.62545 57.9714 9.72C58.6751 10.7755 58.8314 12.1436 58.3623 13.3555L44.876 47.0909H82.0905C83.4587 47.0909 84.7487 47.8336 85.4523 49.0063C86.156 50.2182 86.195 51.7036 85.4914 52.9154Z" fill="#FDC11A"/>
</svg>
