<svg width="57" height="64" viewBox="0 0 57 64" fill="none" xmlns="http://www.w3.org/2000/svg">
<path d="M0 14.3157C0 12.7897 1.08794 11.5526 2.42999 11.5526L10.8223 11.5512C12.4897 11.5031 13.9608 10.2975 14.5282 8.51394C14.5431 8.46704 14.5602 8.40921 14.6218 8.19932L14.9834 6.96554C15.2047 6.20907 15.3974 5.55 15.6672 4.96092C16.733 2.63368 18.7049 1.01761 20.9835 0.603861C21.5603 0.499124 22.1712 0.499565 22.8723 0.500069H33.828C34.5292 0.499565 35.14 0.499124 35.7167 0.603861C37.9954 1.01761 39.9673 2.63368 41.033 4.96092C41.3029 5.55 41.4957 6.20907 41.7168 6.96554L42.0784 8.19932C42.1399 8.40921 42.1572 8.46704 42.172 8.51394C42.7396 10.2975 44.5023 11.5046 46.1696 11.5526H54.2698C55.6117 11.5526 56.6997 12.7897 56.6997 14.3157C56.6997 15.8418 55.6117 17.0789 54.2698 17.0789H2.42999C1.08794 17.0789 0 15.8418 0 14.3157Z" fill="#FB7B4A"/>
<path d="M27.0763 63.5H29.624C38.3895 63.5 42.7724 63.5 45.6219 60.7094C48.4716 57.9188 48.763 53.3413 49.3461 44.1858L50.1862 30.994C50.5028 26.0265 50.6609 23.5429 49.2311 21.9689C47.8016 20.395 45.3875 20.395 40.5595 20.395H16.141C11.3128 20.395 8.89865 20.395 7.46909 21.9689C6.03954 23.5429 6.19773 26.0265 6.51411 30.994L7.35424 44.1858C7.93734 53.3413 8.22887 57.9188 11.0785 60.7094C13.9281 63.5 18.3108 63.5 27.0763 63.5Z" fill="#FB7B4A"/>
<path fill-rule="evenodd" clip-rule="evenodd" d="M20.2404 30.3665C21.5387 30.2298 22.6963 31.2271 22.8261 32.5936L24.4011 49.1726C24.5309 50.539 23.5837 51.7578 22.2856 51.8945C20.9872 52.0312 19.8295 51.0339 19.6997 49.6674L18.1247 33.0884C17.9949 31.722 18.9421 30.5032 20.2404 30.3665Z" fill="#F3F3F3"/>
<path fill-rule="evenodd" clip-rule="evenodd" d="M36.4593 30.3665C37.7574 30.5032 38.7046 31.722 38.5749 33.0884L36.9999 49.6674C36.8701 51.0339 35.7125 52.0312 34.414 51.8945C33.1159 51.7578 32.1687 50.539 32.2985 49.1726L33.8735 32.5936C34.0033 31.2271 35.1609 30.2298 36.4593 30.3665Z" fill="#F3F3F3"/>
</svg>
