<svg width="96" height="108" viewBox="0 0 96 108" fill="none" xmlns="http://www.w3.org/2000/svg">
<path d="M0 24.3101C0 21.7263 1.84203 19.6318 4.11429 19.6318L18.3236 19.6293C21.1468 19.5479 23.6374 17.5067 24.5981 14.4869C24.6234 14.4075 24.6524 14.3095 24.7565 13.9542L25.3688 11.8652C25.7435 10.5844 26.0699 9.46852 26.5267 8.47113C28.3311 4.53081 31.6698 1.7946 35.5278 1.09406C36.5044 0.916729 37.5387 0.917476 38.7259 0.91833H57.2752C58.4624 0.917476 59.4965 0.916729 60.4731 1.09406C64.3312 1.7946 67.6699 4.53081 69.4741 8.47113C69.9312 9.46852 70.2576 10.5844 70.632 11.8652L71.2443 13.9542C71.3483 14.3095 71.3776 14.4075 71.4027 14.4869C72.3637 17.5067 75.3483 19.5504 78.1712 19.6318H91.8859C94.1579 19.6318 96 21.7263 96 24.3101C96 26.8939 94.1579 28.9884 91.8859 28.9884H4.11429C1.84203 28.9884 0 26.8939 0 24.3101Z" fill="#FB7B4A"/>
<path d="M45.8401 107.304H50.1537C64.9948 107.304 72.4156 107.304 77.2401 102.579C82.0652 97.8545 82.5585 90.1041 83.5457 74.6027L84.9681 52.2673C85.5041 43.8566 85.7719 39.6515 83.3511 36.9866C80.9308 34.3218 76.8433 34.3218 68.6689 34.3218H27.3252C19.1503 34.3218 15.0629 34.3218 12.6425 36.9866C10.2221 39.6515 10.4899 43.8566 11.0256 52.2673L12.4481 74.6027C13.4353 90.1041 13.9289 97.8545 18.7537 102.579C23.5784 107.304 30.999 107.304 45.8401 107.304Z" fill="#FB7B4A"/>
</svg>
