<svg width="30" height="30" viewBox="0 0 30 30" fill="none" xmlns="http://www.w3.org/2000/svg">
<path fill-rule="evenodd" clip-rule="evenodd" d="M4.61025 27.305C4.49982 27.714 4.38574 28.1363 4.26662 28.5731C4.05427 29.3516 3.25097 29.8108 2.47237 29.5984C1.69379 29.386 1.23477 28.5827 1.44712 27.8042C1.5668 27.3654 1.68294 26.9334 1.79724 26.5084C2.70116 23.1468 3.48898 20.2168 4.98697 17.7495C6.74347 14.8564 9.40327 12.6751 13.9847 10.7661C14.7297 10.4557 15.5852 10.808 15.8956 11.5529C16.206 12.2979 15.8538 13.1533 15.1089 13.4638C10.9229 15.208 8.83369 17.0449 7.48508 19.2663C6.21737 21.3543 5.54356 23.8493 4.61025 27.305Z" fill="white"/>
<path d="M25.9264 1.36002C16.7204 -0.845584 8.92758 0.668789 4.30276 4.85655C-0.157934 8.8957 -1.32582 15.097 1.628 21.7965C2.18533 20.0864 2.8413 18.4677 3.7378 16.9911C5.69835 13.7619 8.64357 11.4084 13.4227 9.41709C14.9125 8.79631 16.6235 9.50085 17.2444 10.9907C17.8651 12.4807 17.1607 14.1916 15.6708 14.8124C11.6829 16.4741 9.8788 18.1389 8.73402 20.0245C7.88652 21.4203 7.32325 23.0361 6.6985 25.223C14.4517 24.9343 19.9363 23.1871 23.5651 19.8497C27.3248 16.3921 28.8207 11.4811 29.1063 5.60216C29.2033 3.60923 27.8695 1.82558 25.9264 1.36002Z" fill="white"/>
</svg>
