<svg width="27" height="27" viewBox="0 0 27 27" fill="none" xmlns="http://www.w3.org/2000/svg">
<g id="Vector">
<path d="M11.3251 1.48014C12.1035 -0.493393 14.8965 -0.493372 15.6748 1.48016L18.0868 7.59596C18.3244 8.19849 18.8015 8.67544 19.404 8.91306L25.5197 11.3251C27.4934 12.1035 27.4934 14.8965 25.5197 15.6748L19.404 18.0868C18.8015 18.3244 18.3244 18.8015 18.0868 19.404L15.6748 25.5197C14.8965 27.4934 12.1035 27.4934 11.3251 25.5197L8.91306 19.404C8.67544 18.8015 8.19849 18.3244 7.59596 18.0868L1.48014 15.6748C-0.493393 14.8965 -0.493372 12.1035 1.48016 11.3251L7.59596 8.91306C8.19849 8.67544 8.67544 8.19849 8.91306 7.59596L11.3251 1.48014Z" fill="#09284A"/>
<path d="M11.3251 1.48014C12.1035 -0.493393 14.8965 -0.493372 15.6748 1.48016L18.0868 7.59596C18.3244 8.19849 18.8015 8.67544 19.404 8.91306L25.5197 11.3251C27.4934 12.1035 27.4934 14.8965 25.5197 15.6748L19.404 18.0868C18.8015 18.3244 18.3244 18.8015 18.0868 19.404L15.6748 25.5197C14.8965 27.4934 12.1035 27.4934 11.3251 25.5197L8.91306 19.404C8.67544 18.8015 8.19849 18.3244 7.59596 18.0868L1.48014 15.6748C-0.493393 14.8965 -0.493372 12.1035 1.48016 11.3251L7.59596 8.91306C8.19849 8.67544 8.67544 8.19849 8.91306 7.59596L11.3251 1.48014Z" fill="black" fill-opacity="0.2"/>
</g>
</svg>
