<svg width="52" height="64" viewBox="0 0 52 64" fill="none" xmlns="http://www.w3.org/2000/svg">
<path d="M15.3601 49.8233V46.4014C8.57532 42.3011 3 34.3068 3 25.8112C3 11.2091 16.4221 -0.2365 31.5846 3.0674C38.2514 4.54235 44.0922 8.96721 47.1306 15.0735C53.2959 27.463 46.8061 40.6196 37.2779 46.3719V49.7938C37.2779 50.6493 37.6024 52.6258 34.446 52.6258H18.192C14.9471 52.6553 15.3601 51.3868 15.3601 49.8233Z" fill="#FDC11A" stroke="#FDC11A" stroke-width="4.42486" stroke-linecap="round" stroke-linejoin="round"/>
<path d="M26.2747 19.8818L23.1183 25.3687C22.4104 26.5782 23.0003 27.5811 24.3868 27.5811H28.1332C29.5491 27.5811 30.1096 28.5841 29.4016 29.7936L26.2747 35.2804" stroke="white" stroke-width="4.42486" stroke-linecap="round" stroke-linejoin="round"/>
<path d="M15.9497 61.5052C22.705 59.5878 29.8438 59.5878 36.5991 61.5052" stroke="#292D32" stroke-width="4.42486" stroke-linecap="round" stroke-linejoin="round"/>
</svg>
