<svg width="28" height="27" viewBox="0 0 28 27" fill="none" xmlns="http://www.w3.org/2000/svg">
<path id="Vector" d="M12.4067 1.00999C12.9644 0.452279 13.2433 0.173415 13.5648 0.0689309C13.8477 -0.022977 14.1523 -0.022977 14.4353 0.0689309C14.7568 0.173415 15.0356 0.452265 15.5933 1.00999L17.565 2.98166C17.8087 3.22523 17.9303 3.34703 18.0726 3.43412C18.1985 3.51134 18.3359 3.56823 18.4796 3.60274C18.6417 3.64165 18.8139 3.64165 19.1584 3.64165H21.605C22.3938 3.64165 22.7881 3.64165 23.0894 3.79514C23.3544 3.93017 23.5699 4.14562 23.705 4.41061C23.8583 4.71187 23.8583 5.10625 23.8583 5.89498V8.34162C23.8583 8.68609 23.8583 8.85833 23.8973 9.0204C23.9318 9.16411 23.9887 9.30147 24.0659 9.42749C24.1531 9.56961 24.2748 9.6914 24.5184 9.93497L26.4901 11.9066C27.0478 12.4643 27.3266 12.7432 27.4311 13.0649C27.523 13.3476 27.523 13.6523 27.4311 13.9352C27.3266 14.2567 27.0478 14.5356 26.4901 15.0933L24.5184 17.0649C24.2748 17.3086 24.1531 17.4304 24.0659 17.5725C23.9887 17.6986 23.9318 17.8359 23.8973 17.9795C23.8583 18.1416 23.8583 18.3139 23.8583 18.6583V21.105C23.8583 21.8937 23.8583 22.2882 23.705 22.5894C23.5699 22.8543 23.3544 23.0698 23.0894 23.2049C22.7881 23.3584 22.3938 23.3584 21.605 23.3584H19.1584C18.8139 23.3584 18.6417 23.3584 18.4796 23.3972C18.3359 23.4317 18.1985 23.4886 18.0726 23.5658C17.9303 23.653 17.8087 23.7747 17.565 24.0183L15.5933 25.99C15.0356 26.5477 14.7568 26.8265 14.4353 26.931C14.1523 27.023 13.8477 27.023 13.5648 26.931C13.2433 26.8265 12.9644 26.5477 12.4067 25.99L10.435 24.0183C10.1914 23.7747 10.0696 23.653 9.92751 23.5658C9.8015 23.4886 9.66413 23.4317 9.52043 23.3972C9.35834 23.3584 9.18611 23.3584 8.84165 23.3584H6.395C5.60626 23.3584 5.21188 23.3584 4.91062 23.2049C4.64563 23.0698 4.43019 22.8543 4.29515 22.5894C4.14166 22.2882 4.14166 21.8937 4.14166 21.105V18.6583C4.14166 18.3139 4.14166 18.1416 4.10275 17.9795C4.06824 17.8359 4.01135 17.6986 3.93413 17.5725C3.84703 17.4304 3.72524 17.3086 3.48167 17.0649L1.51 15.0933C0.952267 14.5356 0.673402 14.2567 0.568931 13.9352C0.477023 13.6523 0.477023 13.3476 0.568931 13.0649C0.673402 12.7432 0.952267 12.4643 1.51 11.9066L3.48167 9.93497C3.72524 9.6914 3.84703 9.56961 3.93413 9.42749C4.01135 9.30147 4.06824 9.16411 4.10275 9.0204C4.14166 8.85833 4.14166 8.68609 4.14166 8.34162V5.89498C4.14166 5.10625 4.14166 4.71187 4.29515 4.41061C4.43019 4.14562 4.64563 3.93017 4.91062 3.79514C5.21188 3.64165 5.60626 3.64165 6.395 3.64165H8.84165C9.18611 3.64165 9.35834 3.64165 9.52043 3.60274C9.66413 3.56823 9.8015 3.51134 9.92751 3.43412C10.0696 3.34703 10.1914 3.22523 10.435 2.98166L12.4067 1.00999Z" fill="white"/>
</svg>
