<svg width="357" height="346" viewBox="0 0 357 346" fill="none" xmlns="http://www.w3.org/2000/svg">
<g clip-path="url(#clip0_1078_845)">
<path d="M166.009 236.643L162.972 311.164L162.569 315.625L77.5139 309.754C72.189 309.192 67.4973 306.861 63.9425 303.378C59.956 299.737 56.7322 295.319 54.5303 290.353L54.4296 290.109C53.0624 286.871 52.0261 283.114 51.5224 279.185L51.4937 278.97C51.3641 277.746 51.2922 276.321 51.2922 274.882C51.2922 271.673 51.6664 268.536 52.3572 265.528L52.2996 265.801C53.3166 260.802 54.1082 257.089 54.6742 254.662C56.1422 249.366 57.6245 245.063 59.3372 240.86L59.0349 241.709C61.328 235.502 62.6089 231.937 62.8775 231.016C73.4219 232.619 107.789 234.499 165.98 236.658L166.009 236.643ZM87.6169 117.984L124.071 194.735L94.3091 176.112C86.5951 184.833 79.1834 194.375 72.3761 204.377L71.7428 205.37C66.6769 212.609 61.7837 220.913 57.5526 229.577L57.0633 230.685C53.8203 237.814 51.1579 244.194 49.0758 249.826C47.5791 253.439 46.2838 257.713 45.4059 262.146L45.334 262.592L44.5281 266.837L6.05892 194.548C3.90016 191.353 2.56173 187.452 2.41781 183.236V183.192C2.37464 182.631 2.34585 181.969 2.34585 181.307C2.34585 178.573 2.80639 175.953 3.6555 173.521L3.61233 173.694L5.2242 170.053C9.97348 161.552 17.6683 148.883 28.3086 132.044L0 114.558L87.6169 117.984ZM336.882 222.683L298.873 295.376C297.305 299.233 294.757 302.428 291.548 304.76L291.49 304.803C289.015 306.76 286.05 308.199 282.827 308.919L282.683 308.948L279.041 309.754C269.457 310.694 254.676 311.485 234.701 312.128L236.312 345.387L189.741 271.069L232.499 197.757L233.909 232.786C244.142 233.981 255.986 234.672 267.989 234.672C276.163 234.672 284.266 234.355 292.267 233.736L291.202 233.808C303.795 232.974 315.525 230.585 326.635 226.828L325.656 227.116L336.882 222.683ZM177.968 35.562C171.636 44.0627 153.747 73.4267 124.301 123.654L60.1575 85.7892L56.3149 83.4145L101.879 11.3263C104.757 7.03756 108.931 3.8282 113.839 2.23072L113.997 2.18755C117.753 0.791546 122.085 0 126.604 0C127.871 0 129.123 0.057567 130.36 0.187093L130.202 0.172701C133.814 0.489319 137.153 1.33843 140.248 2.63369L140.032 2.54734C143.299 3.87138 146.062 5.31055 148.681 6.95121L148.451 6.82169C151.588 8.92288 154.337 11.1248 156.87 13.5282L156.841 13.4995C160.084 16.4737 162.516 18.8004 164.138 20.4795C165.759 22.1585 168.191 24.821 171.434 28.4669C174.706 32.1128 176.884 34.4778 177.968 35.562ZM310.603 97.7199L353.533 171.233C355.289 174.658 356.325 178.702 356.325 182.991C356.325 184.286 356.224 185.567 356.052 186.819L356.066 186.675C355.231 192.317 353.274 197.383 350.41 201.815L350.497 201.671C348.582 204.535 346.38 207.011 343.862 209.126L343.804 209.17C341.53 211.141 339.012 213.012 336.364 214.682L336.105 214.826C333.313 216.481 330.06 217.977 326.664 219.157L326.275 219.273C322.159 220.76 318.993 221.839 316.777 222.511C314.56 223.182 311.082 224.127 306.343 225.346L297.031 227.721C292.435 218.001 274.546 188.57 243.364 139.427L306.746 99.9363L310.603 97.7199ZM281.646 51.9542L310.401 35.1446L265.859 110.687L180.991 106.643L211.573 89.2288C206.464 75.8013 201.355 64.7341 195.613 54.0698L196.39 55.6529C191.381 45.996 186.301 37.8215 180.688 30.05L181.091 30.64C176.438 24.3556 172.082 18.9539 168.024 14.4349C165.088 11.0097 161.979 7.92985 158.64 5.10907L158.525 5.00833L155.085 2.37464L237.046 2.57612C237.723 2.50416 238.5 2.46099 239.306 2.46099C242.76 2.46099 246.041 3.29571 248.92 4.76367L248.804 4.7061C251.927 6.11649 254.561 8.07377 256.72 10.4772L256.734 10.506L258.965 13.5426C264.232 21.7363 271.793 34.5402 281.646 51.9542Z" fill="white"/>
</g>
<defs>
<clipPath id="clip0_1078_845">
<rect width="356.325" height="345.387" fill="white"/>
</clipPath>
</defs>
</svg>
