<svg width="16" height="16" viewBox="0 0 16 16" fill="none" xmlns="http://www.w3.org/2000/svg">
<path d="M1.26769 9.32178L1.84246 10.4541C1.44862 10.8418 1.23077 11.2639 1.23077 11.6922C1.23077 13.275 4.21785 14.7692 8 14.7692C11.7822 14.7692 14.7692 13.275 14.7692 11.6922C14.7692 11.2639 14.5502 10.843 14.1575 10.4553L14.7434 9.33162C15.5372 9.99624 16 10.8012 16 11.6922C16 14.187 12.3742 15.9999 8 15.9999C3.62585 15.9999 0 14.187 0 11.6922C0 10.7962 0.467692 9.98885 1.26769 9.32178Z" fill="white"/>
<path d="M1.26769 5.62952L1.84246 6.76182C1.44862 7.15075 1.23077 7.5729 1.23077 7.99998C1.23077 9.58275 4.21785 11.0769 8 11.0769C11.7822 11.0769 14.7692 9.58275 14.7692 7.99998C14.7692 7.57167 14.5502 7.15075 14.1575 6.76306L14.7434 5.63936C15.5372 6.30398 16 7.1089 16 7.99998C16 10.4947 12.3742 12.3077 8 12.3077C3.62585 12.3077 0 10.4947 0 7.99998C0 7.10398 0.467692 6.29659 1.26769 5.62952Z" fill="white"/>
<path d="M8 8.61538C3.62585 8.61538 0 6.80246 0 4.30769C0 1.81292 3.62585 0 8 0C12.3742 0 16 1.81292 16 4.30769C16 6.80246 12.3742 8.61538 8 8.61538ZM8 7.38461C11.7822 7.38461 14.7692 5.89046 14.7692 4.30769C14.7692 2.72492 11.7822 1.23077 8 1.23077C4.21785 1.23077 1.23077 2.72492 1.23077 4.30769C1.23077 5.89046 4.21785 7.38461 8 7.38461Z" fill="white"/>
</svg>
