<svg width="40" height="40" viewBox="0 0 40 40" fill="none" xmlns="http://www.w3.org/2000/svg">
<g id="stars_svgrepo.com">
<path id="Vector" d="M10.9057 1.42532C11.6552 -0.475121 14.3448 -0.4751 15.0943 1.42534L17.417 7.31465C17.6458 7.89487 18.1052 8.35415 18.6854 8.58297L24.5746 10.9057C26.4752 11.6552 26.4752 14.3448 24.5746 15.0943L18.6854 17.417C18.1052 17.6458 17.6458 18.1052 17.417 18.6854L15.0943 24.5746C14.3448 26.4752 11.6552 26.4752 10.9057 24.5746L8.58297 18.6854C8.35415 18.1052 7.89487 17.6458 7.31465 17.417L1.42532 15.0943C-0.475121 14.3448 -0.4751 11.6552 1.42534 10.9057L7.31465 8.58297C7.89487 8.35415 8.35415 7.89487 8.58297 7.31465L10.9057 1.42532Z" fill="#09284A"/>
<path id="Vector_2" opacity="0.5" d="M29.849 22.7832C30.261 21.7389 31.739 21.7389 32.151 22.7832L33.9522 27.3506C34.078 27.6696 34.3304 27.922 34.6494 28.0478L39.2168 29.849C40.261 30.261 40.261 31.739 39.2168 32.151L34.6494 33.9522C34.3304 34.078 34.078 34.3304 33.9522 34.6494L32.151 39.2168C31.739 40.261 30.261 40.261 29.849 39.2168L28.0478 34.6494C27.922 34.3304 27.6696 34.078 27.3506 33.9522L22.7832 32.151C21.7389 31.739 21.7389 30.261 22.7832 29.849L27.3506 28.0478C27.6696 27.922 27.922 27.6696 28.0478 27.3506L29.849 22.7832Z" fill="#3A5370"/>
</g>
</svg>
