<svg width="27" height="27" viewBox="0 0 27 27" fill="none" xmlns="http://www.w3.org/2000/svg">
<path d="M11.9067 1.00999C12.4644 0.452279 12.7433 0.173415 13.0648 0.0689309C13.3477 -0.022977 13.6523 -0.022977 13.9353 0.0689309C14.2568 0.173415 14.5356 0.452265 15.0933 1.00999L17.065 2.98166C17.3087 3.22523 17.4303 3.34703 17.5726 3.43412C17.6985 3.51134 17.8359 3.56823 17.9796 3.60274C18.1417 3.64165 18.3139 3.64165 18.6584 3.64165H21.105C21.8938 3.64165 22.2881 3.64165 22.5894 3.79514C22.8544 3.93017 23.0699 4.14562 23.205 4.41061C23.3583 4.71187 23.3583 5.10625 23.3583 5.89498V8.34162C23.3583 8.68609 23.3583 8.85833 23.3973 9.0204C23.4318 9.16411 23.4887 9.30147 23.5659 9.42749C23.6531 9.56961 23.7748 9.6914 24.0184 9.93497L25.9901 11.9066C26.5478 12.4643 26.8266 12.7432 26.9311 13.0649C27.023 13.3476 27.023 13.6523 26.9311 13.9352C26.8266 14.2567 26.5478 14.5356 25.9901 15.0933L24.0184 17.0649C23.7748 17.3086 23.6531 17.4304 23.5659 17.5725C23.4887 17.6986 23.4318 17.8359 23.3973 17.9795C23.3583 18.1416 23.3583 18.3139 23.3583 18.6583V21.105C23.3583 21.8937 23.3583 22.2882 23.205 22.5894C23.0699 22.8543 22.8544 23.0698 22.5894 23.2049C22.2881 23.3584 21.8938 23.3584 21.105 23.3584H18.6584C18.3139 23.3584 18.1417 23.3584 17.9796 23.3972C17.8359 23.4317 17.6985 23.4886 17.5726 23.5658C17.4303 23.653 17.3087 23.7747 17.065 24.0183L15.0933 25.99C14.5356 26.5477 14.2568 26.8265 13.9353 26.931C13.6523 27.023 13.3477 27.023 13.0648 26.931C12.7433 26.8265 12.4644 26.5477 11.9067 25.99L9.935 24.0183C9.69143 23.7747 9.56964 23.653 9.42751 23.5658C9.3015 23.4886 9.16413 23.4317 9.02043 23.3972C8.85834 23.3584 8.68611 23.3584 8.34165 23.3584H5.895C5.10626 23.3584 4.71188 23.3584 4.41062 23.2049C4.14563 23.0698 3.93019 22.8543 3.79515 22.5894C3.64166 22.2882 3.64166 21.8937 3.64166 21.105V18.6583C3.64166 18.3139 3.64166 18.1416 3.60275 17.9795C3.56824 17.8359 3.51135 17.6986 3.43413 17.5725C3.34703 17.4304 3.22524 17.3086 2.98167 17.0649L1.01 15.0933C0.452267 14.5356 0.173402 14.2567 0.0689311 13.9352C-0.022977 13.6523 -0.022977 13.3476 0.0689311 13.0649C0.173402 12.7432 0.452267 12.4643 1.01 11.9066L2.98167 9.93497C3.22524 9.6914 3.34703 9.56961 3.43413 9.42749C3.51135 9.30147 3.56824 9.16411 3.60275 9.0204C3.64166 8.85833 3.64166 8.68609 3.64166 8.34162V5.89498C3.64166 5.10625 3.64166 4.71187 3.79515 4.41061C3.93019 4.14562 4.14563 3.93017 4.41062 3.79514C4.71188 3.64165 5.10626 3.64165 5.895 3.64165H8.34165C8.68611 3.64165 8.85834 3.64165 9.02043 3.60274C9.16413 3.56823 9.3015 3.51134 9.42751 3.43412C9.56964 3.34703 9.69143 3.22523 9.935 2.98166L11.9067 1.00999Z" fill="#09284A"/>
</svg>
