<svg width="392" height="465" viewBox="0 0 392 465" fill="none" xmlns="http://www.w3.org/2000/svg">
<path d="M392.815 0H0.0837402V390.838C0.0837402 390.838 -5.03232 385.454 64.6303 390.838C118.491 395 266.847 422.167 326.588 408.603C399.741 391.993 392.815 390.838 392.815 390.838V0Z" fill="#9BB03F"/>
<path d="M200 370.31C200 367.726 201.842 365.632 204.114 365.632L218.324 365.629C221.147 365.548 223.637 363.507 224.598 360.487C224.623 360.407 224.652 360.31 224.757 359.954L225.369 357.865C225.743 356.584 226.07 355.469 226.527 354.471C228.331 350.531 231.67 347.795 235.528 347.094C236.504 346.917 237.539 346.917 238.726 346.918H257.275C258.462 346.917 259.497 346.917 260.473 347.094C264.331 347.795 267.67 350.531 269.474 354.471C269.931 355.469 270.258 356.584 270.632 357.865L271.244 359.954C271.348 360.31 271.378 360.407 271.403 360.487C272.364 363.507 275.348 365.55 278.171 365.632H291.886C294.158 365.632 296 367.726 296 370.31C296 372.894 294.158 374.988 291.886 374.988H204.114C201.842 374.988 200 372.894 200 370.31Z" fill="#FB7B4A"/>
<path d="M245.84 453.304H250.154C264.995 453.304 272.416 453.304 277.24 448.579C282.065 443.854 282.559 436.104 283.546 420.603L284.968 398.267C285.504 389.857 285.772 385.651 283.351 382.987C280.931 380.322 276.843 380.322 268.669 380.322H227.325C219.15 380.322 215.063 380.322 212.643 382.987C210.222 385.651 210.49 389.857 211.026 398.267L212.448 420.603C213.435 436.104 213.929 443.854 218.754 448.579C223.578 453.304 230.999 453.304 245.84 453.304Z" fill="#FB7B4A"/>
<path d="M191.5 458C180.228 458 169.418 453.522 161.448 445.552C153.478 437.582 149 426.772 149 415.5C149 387.167 191.5 339 191.5 339C191.5 339 234 387.167 234 415.5C234 426.772 229.522 437.582 221.552 445.552C213.582 453.522 202.772 458 191.5 458Z" fill="#32A7FF"/>
<path d="M174.491 391.915L135.401 462.279C134.697 463.53 133.407 464.273 132 464.273C131.687 464.273 131.335 464.234 131.022 464.155C129.302 463.686 128.091 462.162 128.091 460.364V417.364H92.9087C91.5796 417.364 90.3678 416.699 89.6251 415.605C88.9214 414.51 88.8042 413.103 89.3123 411.891L116.676 349.345C117.301 347.938 118.709 347 120.272 347H143.727C145.017 347 146.229 347.625 146.971 348.72C147.675 349.775 147.831 351.144 147.362 352.355L133.876 386.091H171.091C172.459 386.091 173.749 386.834 174.452 388.006C175.156 389.218 175.195 390.704 174.491 391.915Z" fill="#FDC11A"/>
</svg>
