<svg width="105" height="105" viewBox="0 0 105 105" fill="none" xmlns="http://www.w3.org/2000/svg">
<g id="Group 23">
<path id="Vector" d="M46.642 6.70197C48.6862 4.65776 49.7083 3.63563 50.8868 3.25266C51.9238 2.91578 53.0404 2.91578 54.0774 3.25266C55.2559 3.63563 56.278 4.65771 58.3221 6.70197L65.549 13.9288C66.442 14.8216 66.888 15.268 67.4094 15.5872C67.8709 15.8703 68.3747 16.0788 68.9012 16.2053C69.4954 16.3479 70.1267 16.3479 71.3893 16.3479H80.3568C83.248 16.3479 84.6934 16.3479 85.7976 16.9105C86.7691 17.4054 87.5588 18.1951 88.0539 19.1664C88.616 20.2706 88.616 21.7161 88.616 24.6071V33.5749C88.616 34.8375 88.616 35.4688 88.759 36.0629C88.8855 36.5896 89.094 37.0931 89.3769 37.555C89.6964 38.0759 90.1424 38.5223 91.0355 39.4151L98.2623 46.6419C100.306 48.6861 101.329 49.7082 101.712 50.8872C102.048 51.9237 102.048 53.0403 101.712 54.0773C101.329 55.2558 100.306 56.2779 98.2623 58.322L91.0355 65.5489C90.1424 66.4419 89.6964 66.8884 89.3769 67.4093C89.094 67.8713 88.8855 68.3746 88.759 68.9011C88.616 69.4953 88.616 70.1266 88.616 71.3892V80.3572C88.616 83.2479 88.616 84.6938 88.0539 85.798C87.5588 86.769 86.7691 87.5587 85.7976 88.0538C84.6934 88.6164 83.248 88.6164 80.3568 88.6164H71.3893C70.1267 88.6164 69.4954 88.6164 68.9012 88.7589C68.3747 88.8854 67.8709 89.0939 67.4094 89.3768C66.888 89.6963 66.442 90.1423 65.549 91.0354L58.3221 98.2622C56.278 100.306 55.2559 101.328 54.0774 101.711C53.0404 102.049 51.9238 102.049 50.8868 101.711C49.7083 101.328 48.6862 100.306 46.642 98.2622L39.4151 91.0354C38.5223 90.1423 38.0759 89.6963 37.555 89.3768C37.0931 89.0939 36.5896 88.8854 36.0629 88.7589C35.4688 88.6164 34.8375 88.6164 33.5749 88.6164H24.6071C21.7161 88.6164 20.2706 88.6164 19.1664 88.0538C18.1951 87.5587 17.4054 86.769 16.9105 85.798C16.3479 84.6938 16.3479 83.2479 16.3479 80.3572V71.3892C16.3479 70.1266 16.3479 69.4953 16.2053 68.9011C16.0788 68.3746 15.8703 67.8713 15.5872 67.4093C15.268 66.8884 14.8216 66.4419 13.9288 65.5489L6.70197 58.322C4.65771 56.2779 3.63557 55.2558 3.25266 54.0773C2.91578 53.0403 2.91578 51.9237 3.25266 50.8872C3.63557 49.7082 4.65771 48.6861 6.70197 46.6419L13.9288 39.4151C14.8216 38.5223 15.268 38.0759 15.5872 37.555C15.8703 37.0931 16.0788 36.5896 16.2053 36.0629C16.3479 35.4688 16.3479 34.8375 16.3479 33.5749V24.6071C16.3479 21.7161 16.3479 20.2706 16.9105 19.1664C17.4054 18.1951 18.1951 17.4054 19.1664 16.9105C20.2706 16.3479 21.7161 16.3479 24.6071 16.3479H33.5749C34.8375 16.3479 35.4688 16.3479 36.0629 16.2053C36.5896 16.0788 37.0931 15.8703 37.555 15.5872C38.0759 15.268 38.5223 14.8216 39.4151 13.9288L46.642 6.70197Z" fill="#3A5370" stroke="#3A5370" stroke-width="5" stroke-linecap="round" stroke-linejoin="round"/>
<g id="Group">
<path id="Vector_2" d="M66.6541 41.5872C67.1191 40.1406 67.375 38.6003 67.375 37C67.375 28.7162 60.6597 22 52.375 22C44.0903 22 37.375 28.7162 37.375 37C37.375 38.6003 37.6309 40.1406 38.0959 41.5872C32.2234 43.6206 28 49.1856 28 55.75C28 64.0338 34.7153 70.75 43 70.75C46.2484 70.75 49.2447 69.7028 51.7 67.9469L44.1906 60.4375H40.1875C39.6691 60.4375 39.25 60.0184 39.25 59.5C39.25 58.9816 39.6691 58.5625 40.1875 58.5625H43.9375V54.8125C43.9375 54.2941 44.3566 53.875 44.875 53.875C45.3934 53.875 45.8125 54.2941 45.8125 54.8125V59.4072L51.4375 65.0294V53.3275L47.9687 49.8587C47.6022 49.4922 47.6425 48.94 48.01 48.5725C48.3766 48.2059 48.8856 48.1225 49.2512 48.4881L52.375 51.6119L55.4594 48.5275C55.8259 48.1609 56.4325 48.1478 56.7991 48.5134C57.1656 48.8791 57.1647 49.4734 56.7981 49.84L53.3125 53.3256V65.0303L58.9375 59.4044V54.8125C58.9375 54.2941 59.3566 53.875 59.875 53.875C60.3934 53.875 60.8125 54.2941 60.8125 54.8125V58.5625H64.5625C65.0809 58.5625 65.5 58.9816 65.5 59.5C65.5 60.0184 65.0809 60.4375 64.5625 60.4375H60.5594L53.05 67.9469C55.5063 69.7028 58.5016 70.75 61.75 70.75C70.0347 70.75 76.75 64.0338 76.75 55.75C76.75 49.1856 72.5266 43.6206 66.6541 41.5872Z" fill="#C9D78D"/>
<path id="Vector_3" d="M48.625 71.651V81.0626C48.625 81.581 49.0441 82.0001 49.5625 82.0001H55.1875C55.7059 82.0001 56.125 81.581 56.125 81.0626V71.651C54.7919 71.1785 53.53 70.5542 52.375 69.7798C51.22 70.5542 49.9581 71.1785 48.625 71.651Z" fill="#C9D78D"/>
</g>
</g>
</svg>
