<svg width="52" height="64" viewBox="0 0 52 64" fill="none" xmlns="http://www.w3.org/2000/svg">
<path fill-rule="evenodd" clip-rule="evenodd" d="M25.5938 53.6562C17.9826 53.6562 11.8125 47.5689 11.8125 40.0601C11.8125 32.5493 20.4199 25.3633 25.5938 20.1875C30.9743 25.4972 39.375 32.5493 39.375 40.0601C39.375 47.5689 33.2049 53.6562 25.5938 53.6562ZM25.5938 0.5C15.9862 10.2433 0 23.7706 0 37.9062C0 52.0419 11.4581 63.5 25.5938 63.5C39.7294 63.5 51.1875 52.0419 51.1875 37.9062C51.1875 23.7706 35.5891 10.4953 25.5938 0.5ZM25.5288 25.1192C21.8413 29.0784 15.7736 33.5789 15.7736 39.3218C15.7736 45.0646 20.1698 49.7188 25.5938 49.7188C31.0177 49.7188 35.4139 45.0646 35.4139 39.3218C35.4139 33.5789 29.362 29.1788 25.5288 25.1192Z" fill="#32A7FF"/>
</svg>
