<svg width="40" height="10" viewBox="0 0 40 10" fill="none" xmlns="http://www.w3.org/2000/svg">
<g id="Complete">
<g id="F-More">
<path id="Horizontal" d="M10 5C10 5.98891 9.70676 6.95561 9.15735 7.77785C8.60794 8.6001 7.82705 9.24096 6.91342 9.6194C5.99979 9.99784 4.99446 10.0969 4.02455 9.90393C3.05465 9.711 2.16373 9.2348 1.46447 8.53553C0.765206 7.83627 0.289002 6.94536 0.0960758 5.97545C-0.0968503 5.00555 0.00216641 4.00021 0.380605 3.08658C0.759043 2.17295 1.39991 1.39206 2.22215 0.842652C3.0444 0.293245 4.0111 0 5 0C6.32609 0 7.59786 0.526785 8.53554 1.46447C9.47322 2.40215 10 3.67392 10 5ZM35 0C34.0111 0 33.0444 0.293245 32.2221 0.842652C31.3999 1.39206 30.759 2.17295 30.3806 3.08658C30.0022 4.00021 29.9031 5.00555 30.0961 5.97545C30.289 6.94536 30.7652 7.83627 31.4645 8.53553C32.1637 9.2348 33.0546 9.711 34.0246 9.90393C34.9945 10.0969 35.9998 9.99784 36.9134 9.6194C37.8271 9.24096 38.6079 8.6001 39.1573 7.77785C39.7068 6.95561 40 5.98891 40 5C40 3.67392 39.4732 2.40215 38.5355 1.46447C37.5979 0.526785 36.3261 0 35 0ZM20 0C19.0111 0 18.0444 0.293245 17.2222 0.842652C16.3999 1.39206 15.759 2.17295 15.3806 3.08658C15.0022 4.00021 14.9031 5.00555 15.0961 5.97545C15.289 6.94536 15.7652 7.83627 16.4645 8.53553C17.1637 9.2348 18.0546 9.711 19.0246 9.90393C19.9945 10.0969 20.9998 9.99784 21.9134 9.6194C22.827 9.24096 23.6079 8.6001 24.1574 7.77785C24.7068 6.95561 25 5.98891 25 5C25 3.67392 24.4732 2.40215 23.5355 1.46447C22.5979 0.526785 21.3261 0 20 0Z" fill="#09284A"/>
</g>
</g>
</svg>
