<svg width="44" height="44" viewBox="0 0 44 44" fill="none" xmlns="http://www.w3.org/2000/svg">
<g id="seal-question_svgrepo.com">
<path id="Vector" d="M21.999 23.6692C24.0854 21.5827 26.1719 20.7578 26.1719 18.4531C26.1719 16.1485 24.3035 14.2802 21.999 14.2802C20.0545 14.2802 18.4208 15.6101 17.9576 17.4099M22.0001 29.9284H22.0209M37.5827 27.2816L40.5037 24.3606C41.3299 23.5342 41.7431 23.1211 41.8979 22.6447C42.0341 22.2258 42.0341 21.7743 41.8979 21.3553C41.7431 20.8788 41.3299 20.4657 40.5037 19.6394L37.5827 16.7185C37.2218 16.3576 37.0415 16.1772 36.9124 15.9667C36.798 15.78 36.7137 15.5765 36.6626 15.3636C36.605 15.1235 36.605 14.8683 36.605 14.358V10.7333C36.605 9.56482 36.605 8.98056 36.3776 8.53425C36.1775 8.14167 35.8583 7.82249 35.4658 7.62246C35.0196 7.39504 34.4351 7.39504 33.2667 7.39504H29.642C29.1317 7.39504 28.8765 7.39504 28.6364 7.33739C28.4235 7.2863 28.2201 7.20198 28.0334 7.08758C27.8229 6.95856 27.6424 6.77815 27.2814 6.41728L24.3604 3.49629C23.5342 2.67004 23.1211 2.25691 22.6448 2.10212C22.2256 1.96596 21.7743 1.96596 21.3554 2.10212C20.8788 2.25691 20.4657 2.67004 19.6395 3.49629L16.7185 6.41728C16.3576 6.77815 16.1772 6.95856 15.9667 7.08758C15.78 7.20198 15.5765 7.2863 15.3636 7.33739C15.1235 7.39504 14.8683 7.39504 14.358 7.39504H10.7333C9.56482 7.39504 8.98056 7.39504 8.53425 7.62246C8.14167 7.82249 7.82249 8.14167 7.62244 8.53425C7.39504 8.98056 7.39504 9.56482 7.39504 10.7333V14.358C7.39504 14.8683 7.39504 15.1235 7.33739 15.3636C7.28628 15.5765 7.20198 15.78 7.08759 15.9667C6.95856 16.1772 6.77813 16.3576 6.41728 16.7185L3.49629 19.6394C2.67002 20.4657 2.25691 20.8788 2.10212 21.3553C1.96596 21.7743 1.96596 22.2258 2.10212 22.6447C2.25691 23.1211 2.67004 23.5342 3.49629 24.3606L6.41728 27.2816C6.77813 27.6423 6.95856 27.8228 7.08759 28.0333C7.20198 28.2201 7.28628 28.4235 7.33739 28.6365C7.39504 28.8765 7.39504 29.1316 7.39504 29.642V33.2667C7.39504 34.4351 7.39504 35.0195 7.62244 35.4658C7.82249 35.8582 8.14167 36.1775 8.53425 36.3776C8.98056 36.605 9.56482 36.605 10.7333 36.605H14.358C14.8683 36.605 15.1235 36.605 15.3636 36.6626C15.5765 36.7137 15.78 36.798 15.9667 36.9125C16.1772 37.0415 16.3576 37.2219 16.7185 37.5827L19.6395 40.5037C20.4657 41.3299 20.8788 41.743 21.3554 41.8978C21.7743 42.0341 22.2256 42.0341 22.6448 41.8978C23.1211 41.743 23.5342 41.3299 24.3604 40.5037L27.2814 37.5827C27.6424 37.2219 27.8229 37.0415 28.0334 36.9125C28.2201 36.798 28.4235 36.7137 28.6364 36.6626C28.8765 36.605 29.1317 36.605 29.642 36.605H33.2667C34.4351 36.605 35.0196 36.605 35.4658 36.3776C35.8583 36.1775 36.1775 35.8582 36.3776 35.4658C36.605 35.0195 36.605 34.4351 36.605 33.2667V29.642C36.605 29.1316 36.605 28.8765 36.6626 28.6365C36.7137 28.4235 36.798 28.2201 36.9124 28.0333C37.0415 27.8228 37.2218 27.6423 37.5827 27.2816Z" stroke="#09284A" stroke-width="4" stroke-linecap="round"/>
</g>
</svg>
