<svg width="180" height="180" viewBox="0 0 180 180" fill="none" xmlns="http://www.w3.org/2000/svg">
<path d="M79.9683 11.3593C83.4798 7.8477 85.2355 6.09188 87.2599 5.43401C89.0414 4.85533 90.9594 4.85533 92.7408 5.43401C94.7652 6.09188 96.521 7.84761 100.032 11.3593L112.447 23.7735C113.981 25.3071 114.747 26.074 115.642 26.6223C116.435 27.1085 117.301 27.4668 118.205 27.684C119.226 27.929 120.31 27.929 122.479 27.929H137.884C142.85 27.929 145.333 27.929 147.23 28.8955C148.899 29.7457 150.255 31.1022 151.106 32.7707C152.071 34.6675 152.071 37.1506 152.071 42.1168V57.5216C152.071 59.6905 152.071 60.775 152.317 61.7954C152.534 62.7002 152.892 63.5652 153.378 64.3586C153.927 65.2534 154.693 66.0203 156.227 67.5539L168.642 79.9681C172.153 83.4796 173.909 85.2353 174.567 87.2606C175.145 89.0412 175.145 90.9592 174.567 92.7406C173.909 94.7651 172.153 96.5208 168.642 100.032L156.227 112.447C154.693 113.981 153.927 114.748 153.378 115.642C152.892 116.436 152.534 117.301 152.317 118.205C152.071 119.226 152.071 120.31 152.071 122.479V137.884C152.071 142.85 152.071 145.334 151.106 147.23C150.255 148.898 148.899 150.255 147.23 151.105C145.333 152.072 142.85 152.072 137.884 152.072H122.479C120.31 152.072 119.226 152.072 118.205 152.317C117.301 152.534 116.435 152.892 115.642 153.378C114.747 153.927 113.981 154.693 112.447 156.227L100.032 168.641C96.521 172.153 94.7652 173.909 92.7408 174.567C90.9594 175.146 89.0414 175.146 87.2599 174.567C85.2355 173.909 83.4798 172.153 79.9683 168.641L67.5539 156.227C66.0203 154.693 65.2534 153.927 64.3585 153.378C63.5652 152.892 62.7002 152.534 61.7954 152.317C60.7749 152.072 59.6905 152.072 57.5216 152.072H42.1168C37.1506 152.072 34.6675 152.072 32.7707 151.105C31.1022 150.255 29.7457 148.898 28.8955 147.23C27.929 145.334 27.929 142.85 27.929 137.884V122.479C27.929 120.31 27.929 119.226 27.684 118.205C27.4668 117.301 27.1085 116.436 26.6223 115.642C26.074 114.748 25.3071 113.981 23.7735 112.447L11.3593 100.032C7.84761 96.5208 6.09179 94.7651 5.43401 92.7406C4.85533 90.9592 4.85533 89.0412 5.43401 87.2606C6.09179 85.2353 7.84761 83.4796 11.3593 79.9681L23.7735 67.5539C25.3071 66.0203 26.074 65.2534 26.6223 64.3586C27.1085 63.5652 27.4668 62.7002 27.684 61.7954C27.929 60.775 27.929 59.6905 27.929 57.5216V42.1168C27.929 37.1506 27.929 34.6675 28.8955 32.7707C29.7457 31.1022 31.1022 29.7457 32.7707 28.8955C34.6675 27.929 37.1506 27.929 42.1168 27.929H57.5216C59.6905 27.929 60.7749 27.929 61.7954 27.684C62.7002 27.4668 63.5652 27.1085 64.3585 26.6223C65.2534 26.074 66.0203 25.3071 67.5539 23.7735L79.9683 11.3593Z" fill="#09284A" stroke="#09284A" stroke-width="8.589" stroke-linecap="round" stroke-linejoin="round"/>
<path d="M114.345 71.2851C115.143 68.8002 115.583 66.1542 115.583 63.4052C115.583 49.1754 104.048 37.6382 89.8161 37.6382C75.5847 37.6382 64.0491 49.1754 64.0491 63.4052C64.0491 66.1542 64.4887 68.8002 65.2875 71.2851C55.1997 74.7781 47.9447 84.3377 47.9447 95.614C47.9447 109.844 59.4803 121.381 73.7117 121.381C79.2919 121.381 84.4388 119.582 88.6566 116.566L75.757 103.666H68.8804C67.9898 103.666 67.27 102.946 67.27 102.056C67.27 101.165 67.9898 100.445 68.8804 100.445H75.3221V94.0035C75.3221 93.1129 76.042 92.3931 76.9326 92.3931C77.8232 92.3931 78.543 93.1129 78.543 94.0035V101.896L88.2057 111.554V91.4526L82.247 85.494C81.6173 84.8643 81.6866 83.9157 82.3179 83.2844C82.9476 82.6548 83.822 82.5114 84.4501 83.1395L89.8161 88.5055L95.1144 83.2071C95.7441 82.5775 96.7861 82.5549 97.4157 83.183C98.0454 83.8111 98.0438 84.8321 97.4141 85.4618L91.4265 91.4494V111.556L101.089 101.891V94.0035C101.089 93.1129 101.809 92.3931 102.7 92.3931C103.59 92.3931 104.31 93.1129 104.31 94.0035V100.445H110.752C111.642 100.445 112.362 101.165 112.362 102.056C112.362 102.946 111.642 103.666 110.752 103.666H103.875L90.9756 116.566C95.195 119.582 100.34 121.381 105.92 121.381C120.152 121.381 131.687 109.844 131.687 95.614C131.687 84.3377 124.432 74.7781 114.345 71.2851Z" fill="#9BB03F"/>
<path d="M83.3744 122.929V139.096C83.3744 139.986 84.0943 140.706 84.9848 140.706H94.6475C95.538 140.706 96.2579 139.986 96.2579 139.096V122.929C93.9679 122.117 91.8002 121.044 89.8161 119.714C87.8321 121.044 85.6644 122.117 83.3744 122.929Z" fill="#9BB03F"/>
</svg>
